<mxfile host="app.diagrams.net" modified="2023-02-28T09:51:08.385Z" agent="5.0 (Macintosh; Intel Mac OS X 10_15_7) AppleWebKit/537.36 (KHTML, like Gecko) Chrome/109.0.0.0 Safari/537.36" etag="GgywoVAH6JT4kppaeymy" version="20.8.23" type="github">
  <diagram name="第 1 页" id="1XXpXtOkjBUIMSISewDr">
    <mxGraphModel dx="1306" dy="771" grid="1" gridSize="10" guides="1" tooltips="1" connect="1" arrows="1" fold="1" page="1" pageScale="1" pageWidth="2339" pageHeight="3300" math="0" shadow="0">
      <root>
        <mxCell id="0" />
        <mxCell id="1" parent="0" />
        <mxCell id="e7Mo19qrPjvFysMxqBRO-8" style="edgeStyle=orthogonalEdgeStyle;rounded=0;orthogonalLoop=1;jettySize=auto;html=1;exitX=0;exitY=0.5;exitDx=0;exitDy=0;entryX=1;entryY=0.5;entryDx=0;entryDy=0;" edge="1" parent="1" source="e7Mo19qrPjvFysMxqBRO-1" target="e7Mo19qrPjvFysMxqBRO-7">
          <mxGeometry relative="1" as="geometry" />
        </mxCell>
        <mxCell id="e7Mo19qrPjvFysMxqBRO-22" style="edgeStyle=orthogonalEdgeStyle;rounded=1;orthogonalLoop=1;jettySize=auto;html=1;exitX=1;exitY=0.5;exitDx=0;exitDy=0;entryX=0;entryY=0.5;entryDx=0;entryDy=0;" edge="1" parent="1" source="e7Mo19qrPjvFysMxqBRO-1" target="e7Mo19qrPjvFysMxqBRO-2">
          <mxGeometry relative="1" as="geometry" />
        </mxCell>
        <mxCell id="e7Mo19qrPjvFysMxqBRO-24" value="存在未处理的图片" style="edgeLabel;html=1;align=center;verticalAlign=middle;resizable=0;points=[];" vertex="1" connectable="0" parent="e7Mo19qrPjvFysMxqBRO-22">
          <mxGeometry x="-0.0703" y="4" relative="1" as="geometry">
            <mxPoint as="offset" />
          </mxGeometry>
        </mxCell>
        <mxCell id="e7Mo19qrPjvFysMxqBRO-25" style="edgeStyle=orthogonalEdgeStyle;rounded=1;orthogonalLoop=1;jettySize=auto;html=1;exitX=1;exitY=0.25;exitDx=0;exitDy=0;entryX=0;entryY=0.5;entryDx=0;entryDy=0;" edge="1" parent="1" source="e7Mo19qrPjvFysMxqBRO-1" target="e7Mo19qrPjvFysMxqBRO-19">
          <mxGeometry relative="1" as="geometry" />
        </mxCell>
        <mxCell id="e7Mo19qrPjvFysMxqBRO-1" value="realtimecomputing" style="rounded=0;whiteSpace=wrap;html=1;" vertex="1" parent="1">
          <mxGeometry x="400" y="167.5" width="120" height="50" as="geometry" />
        </mxCell>
        <mxCell id="e7Mo19qrPjvFysMxqBRO-2" value="rawimage" style="shape=process;whiteSpace=wrap;html=1;backgroundOutline=1;" vertex="1" parent="1">
          <mxGeometry x="600" y="277.5" width="116" height="40" as="geometry" />
        </mxCell>
        <mxCell id="e7Mo19qrPjvFysMxqBRO-4" value="s3" style="shape=cylinder3;whiteSpace=wrap;html=1;boundedLbl=1;backgroundOutline=1;size=15;" vertex="1" parent="1">
          <mxGeometry x="740" y="397.5" width="60" height="80" as="geometry" />
        </mxCell>
        <mxCell id="e7Mo19qrPjvFysMxqBRO-5" value="cdn" style="ellipse;shape=cloud;whiteSpace=wrap;html=1;" vertex="1" parent="1">
          <mxGeometry x="820" y="397.5" width="120" height="80" as="geometry" />
        </mxCell>
        <mxCell id="e7Mo19qrPjvFysMxqBRO-7" value="rawmsg" style="shape=process;whiteSpace=wrap;html=1;backgroundOutline=1;" vertex="1" parent="1">
          <mxGeometry x="260" y="177.5" width="110" height="30" as="geometry" />
        </mxCell>
        <mxCell id="e7Mo19qrPjvFysMxqBRO-11" style="edgeStyle=orthogonalEdgeStyle;rounded=0;orthogonalLoop=1;jettySize=auto;html=1;exitX=0;exitY=0.5;exitDx=0;exitDy=0;entryX=1;entryY=0.5;entryDx=0;entryDy=0;" edge="1" parent="1" source="e7Mo19qrPjvFysMxqBRO-9" target="e7Mo19qrPjvFysMxqBRO-2">
          <mxGeometry relative="1" as="geometry" />
        </mxCell>
        <mxCell id="e7Mo19qrPjvFysMxqBRO-13" style="edgeStyle=orthogonalEdgeStyle;rounded=1;orthogonalLoop=1;jettySize=auto;html=1;exitX=0.5;exitY=1;exitDx=0;exitDy=0;" edge="1" parent="1" source="e7Mo19qrPjvFysMxqBRO-9" target="e7Mo19qrPjvFysMxqBRO-4">
          <mxGeometry relative="1" as="geometry" />
        </mxCell>
        <mxCell id="e7Mo19qrPjvFysMxqBRO-14" style="edgeStyle=orthogonalEdgeStyle;rounded=1;orthogonalLoop=1;jettySize=auto;html=1;exitX=0.5;exitY=1;exitDx=0;exitDy=0;entryX=0.4;entryY=0.1;entryDx=0;entryDy=0;entryPerimeter=0;" edge="1" parent="1" source="e7Mo19qrPjvFysMxqBRO-9" target="e7Mo19qrPjvFysMxqBRO-5">
          <mxGeometry relative="1" as="geometry" />
        </mxCell>
        <mxCell id="e7Mo19qrPjvFysMxqBRO-26" style="edgeStyle=orthogonalEdgeStyle;rounded=1;orthogonalLoop=1;jettySize=auto;html=1;entryX=0.5;entryY=1;entryDx=0;entryDy=0;" edge="1" parent="1" source="e7Mo19qrPjvFysMxqBRO-9" target="e7Mo19qrPjvFysMxqBRO-7">
          <mxGeometry relative="1" as="geometry">
            <Array as="points">
              <mxPoint x="940" y="297.5" />
              <mxPoint x="940" y="567.5" />
              <mxPoint x="315" y="567.5" />
            </Array>
          </mxGeometry>
        </mxCell>
        <mxCell id="e7Mo19qrPjvFysMxqBRO-27" value="write" style="edgeLabel;html=1;align=center;verticalAlign=middle;resizable=0;points=[];" vertex="1" connectable="0" parent="e7Mo19qrPjvFysMxqBRO-26">
          <mxGeometry x="0.1361" y="-2" relative="1" as="geometry">
            <mxPoint as="offset" />
          </mxGeometry>
        </mxCell>
        <mxCell id="e7Mo19qrPjvFysMxqBRO-9" value="imageprocessing" style="rounded=0;whiteSpace=wrap;html=1;" vertex="1" parent="1">
          <mxGeometry x="760" y="275" width="120" height="45" as="geometry" />
        </mxCell>
        <mxCell id="e7Mo19qrPjvFysMxqBRO-18" style="edgeStyle=orthogonalEdgeStyle;rounded=1;orthogonalLoop=1;jettySize=auto;html=1;exitX=1;exitY=0.5;exitDx=0;exitDy=0;entryX=0;entryY=0.5;entryDx=0;entryDy=0;entryPerimeter=0;" edge="1" parent="1" source="e7Mo19qrPjvFysMxqBRO-16" target="e7Mo19qrPjvFysMxqBRO-17">
          <mxGeometry relative="1" as="geometry" />
        </mxCell>
        <mxCell id="e7Mo19qrPjvFysMxqBRO-16" value="onlinedatasync" style="rounded=0;whiteSpace=wrap;html=1;" vertex="1" parent="1">
          <mxGeometry x="780" y="160" width="120" height="40" as="geometry" />
        </mxCell>
        <mxCell id="e7Mo19qrPjvFysMxqBRO-17" value="Mysql" style="shape=cylinder3;whiteSpace=wrap;html=1;boundedLbl=1;backgroundOutline=1;size=15;" vertex="1" parent="1">
          <mxGeometry x="950" y="140" width="60" height="80" as="geometry" />
        </mxCell>
        <mxCell id="e7Mo19qrPjvFysMxqBRO-20" style="edgeStyle=orthogonalEdgeStyle;rounded=1;orthogonalLoop=1;jettySize=auto;html=1;exitX=1;exitY=0.5;exitDx=0;exitDy=0;entryX=0;entryY=0.5;entryDx=0;entryDy=0;" edge="1" parent="1" source="e7Mo19qrPjvFysMxqBRO-19" target="e7Mo19qrPjvFysMxqBRO-16">
          <mxGeometry relative="1" as="geometry" />
        </mxCell>
        <mxCell id="e7Mo19qrPjvFysMxqBRO-19" value="processedMQ" style="shape=process;whiteSpace=wrap;html=1;backgroundOutline=1;" vertex="1" parent="1">
          <mxGeometry x="624" y="160" width="110" height="40" as="geometry" />
        </mxCell>
        <mxCell id="e7Mo19qrPjvFysMxqBRO-30" style="edgeStyle=orthogonalEdgeStyle;rounded=1;orthogonalLoop=1;jettySize=auto;html=1;exitX=1;exitY=0.5;exitDx=0;exitDy=0;entryX=0;entryY=0.5;entryDx=0;entryDy=0;" edge="1" parent="1" source="e7Mo19qrPjvFysMxqBRO-29" target="e7Mo19qrPjvFysMxqBRO-7">
          <mxGeometry relative="1" as="geometry" />
        </mxCell>
        <mxCell id="e7Mo19qrPjvFysMxqBRO-29" value="rawdata" style="text;html=1;strokeColor=none;fillColor=none;align=center;verticalAlign=middle;whiteSpace=wrap;rounded=0;" vertex="1" parent="1">
          <mxGeometry x="160" y="177.5" width="60" height="30" as="geometry" />
        </mxCell>
      </root>
    </mxGraphModel>
  </diagram>
</mxfile>
